<?xml version="1.0" encoding="UTF-8"?> <svg xmlns="http://www.w3.org/2000/svg" width="81" height="24" viewBox="0 0 81 24" fill="none"><path d="M3.816 11.18C3.208 11.18 2.696 11.03 2.28 10.73C1.864 10.426 1.548 10.016 1.332 9.5C1.12 8.98 1.014 8.398 1.014 7.754C1.014 7.102 1.12 6.518 1.332 6.002C1.548 5.486 1.864 5.08 2.28 4.784C2.7 4.488 3.214 4.34 3.822 4.34C4.422 4.34 4.938 4.49 5.37 4.79C5.806 5.086 6.14 5.492 6.372 6.008C6.604 6.524 6.72 7.106 6.72 7.754C6.72 8.402 6.604 8.984 6.372 9.5C6.14 10.016 5.806 10.426 5.37 10.73C4.938 11.03 4.42 11.18 3.816 11.18ZM0.834 13.88V4.52H1.788V9.29H1.908V13.88H0.834ZM3.684 10.202C4.112 10.202 4.466 10.094 4.746 9.878C5.026 9.662 5.236 9.37 5.376 9.002C5.516 8.63 5.586 8.214 5.586 7.754C5.586 7.298 5.516 6.886 5.376 6.518C5.24 6.15 5.028 5.858 4.74 5.642C4.456 5.426 4.094 5.318 3.654 5.318C3.234 5.318 2.886 5.422 2.61 5.63C2.334 5.834 2.128 6.12 1.992 6.488C1.856 6.852 1.788 7.274 1.788 7.754C1.788 8.226 1.854 8.648 1.986 9.02C2.122 9.388 2.33 9.678 2.61 9.89C2.89 10.098 3.248 10.202 3.684 10.202ZM7.79531 11V4.52H8.74931V6.086L8.59331 5.882C8.66931 5.682 8.76731 5.498 8.88731 5.33C9.01131 5.162 9.14931 5.024 9.30131 4.916C9.46931 4.78 9.65931 4.676 9.87131 4.604C10.0833 4.532 10.2993 4.49 10.5193 4.478C10.7393 4.462 10.9453 4.476 11.1373 4.52V5.522C10.9133 5.462 10.6673 5.446 10.3993 5.474C10.1313 5.502 9.88331 5.6 9.65531 5.768C9.44731 5.916 9.28531 6.096 9.16931 6.308C9.05731 6.52 8.97931 6.75 8.93531 6.998C8.89131 7.242 8.86931 7.492 8.86931 7.748V11H7.79531ZM14.6747 11.18C14.0307 11.18 13.4747 11.034 13.0067 10.742C12.5427 10.45 12.1847 10.046 11.9327 9.53C11.6807 9.014 11.5547 8.422 11.5547 7.754C11.5547 7.074 11.6827 6.478 11.9387 5.966C12.1947 5.454 12.5567 5.056 13.0247 4.772C13.4927 4.484 14.0427 4.34 14.6747 4.34C15.3227 4.34 15.8807 4.486 16.3487 4.778C16.8167 5.066 17.1747 5.468 17.4227 5.984C17.6747 6.496 17.8007 7.086 17.8007 7.754C17.8007 8.43 17.6747 9.026 17.4227 9.542C17.1707 10.054 16.8107 10.456 16.3427 10.748C15.8747 11.036 15.3187 11.18 14.6747 11.18ZM14.6747 10.166C15.3467 10.166 15.8467 9.942 16.1747 9.494C16.5027 9.046 16.6667 8.466 16.6667 7.754C16.6667 7.022 16.5007 6.44 16.1687 6.008C15.8367 5.572 15.3387 5.354 14.6747 5.354C14.2227 5.354 13.8507 5.456 13.5587 5.66C13.2667 5.864 13.0487 6.146 12.9047 6.506C12.7607 6.866 12.6887 7.282 12.6887 7.754C12.6887 8.482 12.8567 9.066 13.1927 9.506C13.5287 9.946 14.0227 10.166 14.6747 10.166ZM21.236 11.174C20.464 11.174 19.83 11.006 19.334 10.67C18.842 10.33 18.54 9.856 18.428 9.248L19.52 9.074C19.608 9.426 19.81 9.706 20.126 9.914C20.442 10.118 20.834 10.22 21.302 10.22C21.746 10.22 22.094 10.128 22.346 9.944C22.598 9.76 22.724 9.51 22.724 9.194C22.724 9.01 22.682 8.862 22.598 8.75C22.514 8.634 22.34 8.526 22.076 8.426C21.816 8.326 21.422 8.206 20.894 8.066C20.322 7.914 19.872 7.756 19.544 7.592C19.216 7.428 18.982 7.238 18.842 7.022C18.702 6.806 18.632 6.544 18.632 6.236C18.632 5.856 18.736 5.524 18.944 5.24C19.152 4.952 19.442 4.73 19.814 4.574C20.19 4.418 20.626 4.34 21.122 4.34C21.614 4.34 22.054 4.418 22.442 4.574C22.83 4.73 23.142 4.952 23.378 5.24C23.618 5.524 23.76 5.856 23.804 6.236L22.712 6.434C22.66 6.086 22.492 5.812 22.208 5.612C21.928 5.412 21.566 5.306 21.122 5.294C20.702 5.278 20.36 5.352 20.096 5.516C19.836 5.68 19.706 5.902 19.706 6.182C19.706 6.338 19.754 6.472 19.85 6.584C19.95 6.696 20.132 6.802 20.396 6.902C20.664 7.002 21.052 7.116 21.56 7.244C22.132 7.388 22.582 7.546 22.91 7.718C23.242 7.886 23.478 8.086 23.618 8.318C23.758 8.546 23.828 8.828 23.828 9.164C23.828 9.788 23.598 10.28 23.138 10.64C22.678 10.996 22.044 11.174 21.236 11.174ZM28.5293 11C28.1453 11.076 27.7653 11.106 27.3893 11.09C27.0173 11.078 26.6853 11.004 26.3933 10.868C26.1013 10.728 25.8793 10.512 25.7273 10.22C25.5993 9.964 25.5293 9.706 25.5173 9.446C25.5093 9.182 25.5053 8.884 25.5053 8.552V2.72H26.5733V8.504C26.5733 8.768 26.5753 8.994 26.5793 9.182C26.5873 9.37 26.6293 9.532 26.7053 9.668C26.8493 9.924 27.0773 10.074 27.3893 10.118C27.7053 10.162 28.0853 10.15 28.5293 10.082V11ZM24.1913 5.402V4.52H28.5293V5.402H24.1913ZM29.7968 11V9.824H30.9728V11H29.7968ZM35.0472 11.174C34.2752 11.174 33.6412 11.006 33.1452 10.67C32.6532 10.33 32.3512 9.856 32.2392 9.248L33.3312 9.074C33.4192 9.426 33.6212 9.706 33.9372 9.914C34.2532 10.118 34.6452 10.22 35.1132 10.22C35.5572 10.22 35.9052 10.128 36.1572 9.944C36.4092 9.76 36.5352 9.51 36.5352 9.194C36.5352 9.01 36.4932 8.862 36.4092 8.75C36.3252 8.634 36.1512 8.526 35.8872 8.426C35.6272 8.326 35.2332 8.206 34.7052 8.066C34.1332 7.914 33.6832 7.756 33.3552 7.592C33.0272 7.428 32.7932 7.238 32.6532 7.022C32.5132 6.806 32.4432 6.544 32.4432 6.236C32.4432 5.856 32.5472 5.524 32.7552 5.24C32.9632 4.952 33.2532 4.73 33.6252 4.574C34.0012 4.418 34.4372 4.34 34.9332 4.34C35.4252 4.34 35.8652 4.418 36.2532 4.574C36.6412 4.73 36.9532 4.952 37.1892 5.24C37.4292 5.524 37.5712 5.856 37.6152 6.236L36.5232 6.434C36.4712 6.086 36.3032 5.812 36.0192 5.612C35.7392 5.412 35.3772 5.306 34.9332 5.294C34.5132 5.278 34.1712 5.352 33.9072 5.516C33.6472 5.68 33.5172 5.902 33.5172 6.182C33.5172 6.338 33.5652 6.472 33.6612 6.584C33.7612 6.696 33.9432 6.802 34.2072 6.902C34.4752 7.002 34.8632 7.116 35.3712 7.244C35.9432 7.388 36.3932 7.546 36.7212 7.718C37.0532 7.886 37.2892 8.086 37.4292 8.318C37.5692 8.546 37.6392 8.828 37.6392 9.164C37.6392 9.788 37.4092 10.28 36.9492 10.64C36.4892 10.996 35.8552 11.174 35.0472 11.174ZM42.3405 11C41.9565 11.076 41.5765 11.106 41.2005 11.09C40.8285 11.078 40.4965 11.004 40.2045 10.868C39.9125 10.728 39.6905 10.512 39.5385 10.22C39.4105 9.964 39.3405 9.706 39.3285 9.446C39.3205 9.182 39.3165 8.884 39.3165 8.552V2.72H40.3845V8.504C40.3845 8.768 40.3865 8.994 40.3905 9.182C40.3985 9.37 40.4405 9.532 40.5165 9.668C40.6605 9.924 40.8885 10.074 41.2005 10.118C41.5165 10.162 41.8965 10.15 42.3405 10.082V11ZM38.0025 5.402V4.52H42.3405V5.402H38.0025ZM45.8761 11.168C45.4601 11.168 45.1021 11.102 44.8021 10.97C44.5061 10.838 44.2601 10.662 44.0641 10.442C43.8681 10.222 43.7141 9.978 43.6021 9.71C43.4901 9.442 43.4101 9.168 43.3621 8.888C43.3181 8.608 43.2961 8.346 43.2961 8.102V4.52H44.3761V7.766C44.3761 8.07 44.4041 8.364 44.4601 8.648C44.5161 8.932 44.6101 9.188 44.7421 9.416C44.8781 9.644 45.0581 9.824 45.2821 9.956C45.5101 10.088 45.7941 10.154 46.1341 10.154C46.4021 10.154 46.6461 10.108 46.8661 10.016C47.0861 9.924 47.2741 9.788 47.4301 9.608C47.5861 9.424 47.7061 9.192 47.7901 8.912C47.8741 8.632 47.9161 8.306 47.9161 7.934L48.6181 8.15C48.6181 8.774 48.5041 9.312 48.2761 9.764C48.0521 10.216 47.7341 10.564 47.3221 10.808C46.9141 11.048 46.4321 11.168 45.8761 11.168ZM48.0361 11V9.266H47.9161V4.52H48.9901V11H48.0361ZM52.974 11.18C52.37 11.18 51.852 11.03 51.42 10.73C50.988 10.426 50.654 10.016 50.418 9.5C50.186 8.984 50.07 8.402 50.07 7.754C50.07 7.106 50.186 6.524 50.418 6.008C50.654 5.492 50.988 5.086 51.42 4.79C51.852 4.49 52.368 4.34 52.968 4.34C53.58 4.34 54.094 4.488 54.51 4.784C54.926 5.08 55.24 5.486 55.452 6.002C55.668 6.518 55.776 7.102 55.776 7.754C55.776 8.398 55.668 8.98 55.452 9.5C55.24 10.016 54.926 10.426 54.51 10.73C54.094 11.03 53.582 11.18 52.974 11.18ZM53.106 10.202C53.542 10.202 53.9 10.098 54.18 9.89C54.46 9.678 54.666 9.388 54.798 9.02C54.934 8.648 55.002 8.226 55.002 7.754C55.002 7.274 54.934 6.852 54.798 6.488C54.666 6.12 54.462 5.834 54.186 5.63C53.91 5.422 53.56 5.318 53.136 5.318C52.696 5.318 52.332 5.426 52.044 5.642C51.76 5.858 51.548 6.15 51.408 6.518C51.272 6.886 51.204 7.298 51.204 7.754C51.204 8.214 51.274 8.63 51.414 9.002C51.554 9.37 51.764 9.662 52.044 9.878C52.328 10.094 52.682 10.202 53.106 10.202ZM55.002 11V6.23H54.882V2.36H55.956V11H55.002ZM57.517 3.374V2.27H58.585V3.374H57.517ZM57.517 11V4.52H58.585V11H57.517ZM62.9053 11.18C62.2613 11.18 61.7053 11.034 61.2373 10.742C60.7733 10.45 60.4153 10.046 60.1633 9.53C59.9113 9.014 59.7853 8.422 59.7853 7.754C59.7853 7.074 59.9133 6.478 60.1693 5.966C60.4253 5.454 60.7873 5.056 61.2553 4.772C61.7233 4.484 62.2733 4.34 62.9053 4.34C63.5533 4.34 64.1113 4.486 64.5793 4.778C65.0473 5.066 65.4053 5.468 65.6533 5.984C65.9053 6.496 66.0313 7.086 66.0313 7.754C66.0313 8.43 65.9053 9.026 65.6533 9.542C65.4013 10.054 65.0413 10.456 64.5733 10.748C64.1053 11.036 63.5493 11.18 62.9053 11.18ZM62.9053 10.166C63.5773 10.166 64.0773 9.942 64.4053 9.494C64.7333 9.046 64.8973 8.466 64.8973 7.754C64.8973 7.022 64.7313 6.44 64.3993 6.008C64.0673 5.572 63.5693 5.354 62.9053 5.354C62.4533 5.354 62.0813 5.456 61.7893 5.66C61.4973 5.864 61.2793 6.146 61.1353 6.506C60.9913 6.866 60.9193 7.282 60.9193 7.754C60.9193 8.482 61.0873 9.066 61.4233 9.506C61.7593 9.946 62.2533 10.166 62.9053 10.166Z" fill="#2F2A26"></path><path d="M2.058 21.7051C1.67767 21.7051 1.35567 21.6199 1.092 21.4496C0.828333 21.2793 0.627667 21.0448 0.49 20.7461C0.354667 20.4451 0.284667 20.0998 0.28 19.7101C0.284667 19.3134 0.357 18.9658 0.497 18.6671C0.637 18.3661 0.838833 18.1328 1.1025 17.9671C1.36617 17.7991 1.68583 17.7151 2.0615 17.7151C2.44417 17.7151 2.77667 17.8084 3.059 17.9951C3.34367 18.1818 3.5385 18.4373 3.6435 18.7616L3.1395 18.9226C3.05083 18.6963 2.90967 18.5213 2.716 18.3976C2.52467 18.2716 2.30533 18.2086 2.058 18.2086C1.78033 18.2086 1.5505 18.2728 1.3685 18.4011C1.1865 18.5271 1.05117 18.7033 0.9625 18.9296C0.873833 19.1559 0.828333 19.4161 0.826 19.7101C0.830667 20.1628 0.935667 20.5268 1.141 20.8021C1.34633 21.0751 1.652 21.2116 2.058 21.2116C2.31467 21.2116 2.53283 21.1533 2.7125 21.0366C2.8945 20.9176 3.03217 20.7449 3.1255 20.5186L3.6435 20.6726C3.5035 21.0086 3.29817 21.2653 3.0275 21.4426C2.75683 21.6176 2.43367 21.7051 2.058 21.7051ZM5.16261 21.6001V18.2961H3.82211V17.8201H7.01761V18.2961H5.67711V21.6001H5.16261ZM8.03611 23.2801L8.76761 21.2956L8.77811 21.8836L7.12261 17.8201H7.66861L9.02661 21.2186H8.80261L10.0556 17.8201H10.5806L8.55061 23.2801H8.03611ZM10.6318 22.4401V21.1591C10.8465 21.1591 11.0005 21.0903 11.0938 20.9526C11.1871 20.8126 11.263 20.5898 11.3213 20.2841C11.361 20.0858 11.3936 19.8723 11.4193 19.6436C11.445 19.4149 11.4671 19.1536 11.4858 18.8596C11.5045 18.5633 11.522 18.2168 11.5383 17.8201H14.0373V21.1591H14.4013V22.4401H13.9043V21.6001H11.1253V22.4401H10.6318ZM11.5033 21.1591H13.5263V18.2611H12.0143C12.0073 18.4384 11.9968 18.6263 11.9828 18.8246C11.9711 19.0229 11.956 19.2213 11.9373 19.4196C11.921 19.6179 11.9011 19.8046 11.8778 19.9796C11.8568 20.1523 11.8311 20.3039 11.8008 20.4346C11.7658 20.6026 11.7273 20.7461 11.6853 20.8651C11.6456 20.9841 11.585 21.0821 11.5033 21.1591ZM17.9652 17.8201V21.6001H17.4647V18.6566L15.3927 21.6001H14.9587V17.8201H15.4592V20.7391L17.5347 17.8201H17.9652ZM21.1771 21.6001V20.1756H20.2951C20.1924 20.1756 20.0862 20.1721 19.9766 20.1651C19.8692 20.1558 19.7689 20.1429 19.6756 20.1266C19.4096 20.0753 19.1832 19.9586 18.9966 19.7766C18.8122 19.5923 18.7201 19.3379 18.7201 19.0136C18.7201 18.6963 18.8064 18.4419 18.9791 18.2506C19.1517 18.0569 19.3606 17.9309 19.6056 17.8726C19.7176 17.8469 19.8307 17.8318 19.9451 17.8271C20.0617 17.8224 20.1621 17.8201 20.2461 17.8201H21.6916L21.6951 21.6001H21.1771ZM18.5976 21.6001L19.6511 20.0146H20.2216L19.1611 21.6001H18.5976ZM20.2671 19.7346H21.1771V18.2611H20.2671C20.2111 18.2611 20.1329 18.2634 20.0326 18.2681C19.9322 18.2728 19.8377 18.2879 19.7491 18.3136C19.6721 18.3369 19.5951 18.3778 19.5181 18.4361C19.4434 18.4921 19.3804 18.5679 19.3291 18.6636C19.2777 18.7569 19.2521 18.8713 19.2521 19.0066C19.2521 19.1956 19.3034 19.3473 19.4061 19.4616C19.5111 19.5736 19.6417 19.6506 19.7981 19.6926C19.8821 19.7113 19.9661 19.7229 20.0501 19.7276C20.1341 19.7323 20.2064 19.7346 20.2671 19.7346ZM23.7946 21.6001V17.8201H25.3521C25.4314 17.8201 25.5271 17.8248 25.6391 17.8341C25.7534 17.8434 25.8596 17.8609 25.9576 17.8866C26.1699 17.9426 26.3403 18.0569 26.4686 18.2296C26.5993 18.4023 26.6646 18.6099 26.6646 18.8526C26.6646 18.9879 26.6436 19.1093 26.6016 19.2166C26.5619 19.3216 26.5048 19.4126 26.4301 19.4896C26.3951 19.5293 26.3566 19.5643 26.3146 19.5946C26.2726 19.6226 26.2318 19.6459 26.1921 19.6646C26.2668 19.6786 26.3473 19.7113 26.4336 19.7626C26.5689 19.8419 26.6716 19.9493 26.7416 20.0846C26.8116 20.2176 26.8466 20.3798 26.8466 20.5711C26.8466 20.8301 26.7848 21.0413 26.6611 21.2046C26.5374 21.3679 26.3718 21.4799 26.1641 21.5406C26.0708 21.5663 25.9693 21.5826 25.8596 21.5896C25.7523 21.5966 25.6508 21.6001 25.5551 21.6001H23.7946ZM24.3126 21.1626H25.5306C25.5796 21.1626 25.6414 21.1591 25.7161 21.1521C25.7908 21.1428 25.8573 21.1311 25.9156 21.1171C26.0533 21.0821 26.1536 21.0121 26.2166 20.9071C26.2819 20.7998 26.3146 20.6831 26.3146 20.5571C26.3146 20.3914 26.2656 20.2561 26.1676 20.1511C26.0719 20.0438 25.9436 19.9784 25.7826 19.9551C25.7289 19.9434 25.6729 19.9364 25.6146 19.9341C25.5563 19.9318 25.5038 19.9306 25.4571 19.9306H24.3126V21.1626ZM24.3126 19.4896H25.3696C25.4303 19.4896 25.4979 19.4861 25.5726 19.4791C25.6496 19.4698 25.7161 19.4546 25.7721 19.4336C25.8934 19.3916 25.9821 19.3193 26.0381 19.2166C26.0964 19.1139 26.1256 19.0019 26.1256 18.8806C26.1256 18.7476 26.0941 18.6309 26.0311 18.5306C25.9704 18.4303 25.8783 18.3603 25.7546 18.3206C25.6706 18.2903 25.5796 18.2728 25.4816 18.2681C25.3859 18.2634 25.3253 18.2611 25.2996 18.2611H24.3126V19.4896ZM29.0037 21.7051C28.635 21.7051 28.3153 21.6234 28.0447 21.4601C27.7763 21.2968 27.5675 21.0669 27.4182 20.7706C27.2688 20.4743 27.1942 20.1266 27.1942 19.7276C27.1942 19.3146 27.2677 18.9576 27.4147 18.6566C27.5617 18.3556 27.7682 18.1234 28.0342 17.9601C28.3025 17.7968 28.6187 17.7151 28.9827 17.7151C29.356 17.7151 29.6745 17.8014 29.9382 17.9741C30.2018 18.1444 30.4013 18.3894 30.5367 18.7091C30.672 19.0288 30.7338 19.4103 30.7222 19.8536H30.1972V19.6716C30.1878 19.1816 30.0817 18.8118 29.8787 18.5621C29.678 18.3124 29.384 18.1876 28.9967 18.1876C28.5907 18.1876 28.2792 18.3194 28.0622 18.5831C27.8475 18.8468 27.7402 19.2224 27.7402 19.7101C27.7402 20.1861 27.8475 20.5559 28.0622 20.8196C28.2792 21.0809 28.586 21.2116 28.9827 21.2116C29.2533 21.2116 29.489 21.1498 29.6897 21.0261C29.8927 20.9001 30.0525 20.7193 30.1692 20.4836L30.6487 20.6691C30.4993 20.9981 30.2788 21.2536 29.9872 21.4356C29.6978 21.6153 29.37 21.7051 29.0037 21.7051ZM27.5582 19.8536V19.4231H30.4457V19.8536H27.5582ZM32.8744 21.7086C32.5221 21.7063 32.2199 21.6293 31.9679 21.4776C31.7159 21.3259 31.5199 21.0996 31.3799 20.7986C31.2422 20.4976 31.1676 20.1219 31.1559 19.6716C31.1489 19.4733 31.1536 19.2574 31.1699 19.0241C31.1862 18.7884 31.2119 18.5644 31.2469 18.3521C31.2819 18.1398 31.3239 17.9671 31.3729 17.8341C31.4336 17.6614 31.5199 17.5004 31.6319 17.3511C31.7462 17.1994 31.8781 17.0758 32.0274 16.9801C32.1721 16.8821 32.3354 16.8063 32.5174 16.7526C32.7017 16.6966 32.8931 16.6534 33.0914 16.6231C33.2921 16.5928 33.4904 16.5659 33.6864 16.5426C33.8847 16.5193 34.0679 16.4901 34.2359 16.4551L34.2919 16.9206C34.1636 16.9463 34.0119 16.9696 33.8369 16.9906C33.6619 17.0116 33.4787 17.0373 33.2874 17.0676C33.0961 17.0956 32.9129 17.1341 32.7379 17.1831C32.5629 17.2321 32.4136 17.2963 32.2899 17.3756C32.1009 17.4899 31.9551 17.6626 31.8524 17.8936C31.7521 18.1246 31.6902 18.3894 31.6669 18.6881C31.8116 18.4618 32.0029 18.2914 32.2409 18.1771C32.4812 18.0628 32.7414 18.0056 33.0214 18.0056C33.3621 18.0056 33.6549 18.0838 33.8999 18.2401C34.1472 18.3964 34.3374 18.6134 34.4704 18.8911C34.6034 19.1688 34.6699 19.4873 34.6699 19.8466C34.6699 20.2223 34.5964 20.5501 34.4494 20.8301C34.3047 21.1101 34.0982 21.3271 33.8299 21.4811C33.5616 21.6328 33.2431 21.7086 32.8744 21.7086ZM32.9129 21.2151C33.3096 21.2151 33.6106 21.0914 33.8159 20.8441C34.0236 20.5968 34.1274 20.2678 34.1274 19.8571C34.1274 19.4371 34.0201 19.1058 33.8054 18.8631C33.5931 18.6204 33.2932 18.4991 32.9059 18.4991C32.5186 18.4991 32.2211 18.6204 32.0134 18.8631C31.8057 19.1058 31.7019 19.4371 31.7019 19.8571C31.7019 20.2771 31.8057 20.6084 32.0134 20.8511C32.2211 21.0938 32.5209 21.2151 32.9129 21.2151ZM35.23 19.6156V19.1746H37.33V19.6156H35.23ZM39.7969 21.7051C39.4492 21.7051 39.1552 21.6176 38.9149 21.4426C38.6746 21.2653 38.4926 21.0261 38.3689 20.7251C38.2452 20.4218 38.1834 20.0823 38.1834 19.7066C38.1834 19.3239 38.2452 18.9833 38.3689 18.6846C38.4949 18.3836 38.6792 18.1468 38.9219 17.9741C39.1646 17.8014 39.4632 17.7151 39.8179 17.7151C40.1632 17.7151 40.4596 17.8026 40.7069 17.9776C40.9542 18.1526 41.1432 18.3906 41.2739 18.6916C41.4069 18.9926 41.4734 19.3309 41.4734 19.7066C41.4734 20.0846 41.4069 20.4241 41.2739 20.7251C41.1409 21.0261 40.9496 21.2653 40.6999 21.4426C40.4502 21.6176 40.1492 21.7051 39.7969 21.7051ZM38.0959 23.2801V17.8201H38.5579V20.6656H38.6139V23.2801H38.0959ZM39.7444 21.2256C40.0081 21.2256 40.2274 21.1591 40.4024 21.0261C40.5774 20.8931 40.7081 20.7123 40.7944 20.4836C40.8831 20.2526 40.9274 19.9936 40.9274 19.7066C40.9274 19.4219 40.8842 19.1653 40.7979 18.9366C40.7116 18.7079 40.5797 18.5271 40.4024 18.3941C40.2274 18.2611 40.0046 18.1946 39.7339 18.1946C39.4702 18.1946 39.2509 18.2588 39.0759 18.3871C38.9032 18.5154 38.7737 18.6939 38.6874 18.9226C38.6011 19.1489 38.5579 19.4103 38.5579 19.7066C38.5579 19.9983 38.6011 20.2596 38.6874 20.4906C38.7737 20.7193 38.9044 20.8989 39.0794 21.0296C39.2544 21.1603 39.4761 21.2256 39.7444 21.2256ZM43.1835 21.7051C42.8988 21.7051 42.6597 21.6538 42.466 21.5511C42.2747 21.4484 42.1312 21.3119 42.0355 21.1416C41.9398 20.9713 41.892 20.7858 41.892 20.5851C41.892 20.3798 41.9328 20.2048 42.0145 20.0601C42.0985 19.9131 42.2117 19.7929 42.354 19.6996C42.4987 19.6063 42.6655 19.5351 42.8545 19.4861C43.0458 19.4394 43.257 19.3986 43.488 19.3636C43.7213 19.3263 43.9488 19.2948 44.1705 19.2691C44.3945 19.2411 44.5905 19.2143 44.7585 19.1886L44.5765 19.3006C44.5835 18.9273 44.5112 18.6508 44.3595 18.4711C44.2078 18.2914 43.9442 18.2016 43.5685 18.2016C43.3095 18.2016 43.0902 18.2599 42.9105 18.3766C42.7332 18.4933 42.6083 18.6776 42.536 18.9296L42.0355 18.7826C42.1218 18.4443 42.2957 18.1818 42.557 17.9951C42.8183 17.8084 43.1578 17.7151 43.5755 17.7151C43.9208 17.7151 44.2137 17.7804 44.454 17.9111C44.6967 18.0394 44.8682 18.2261 44.9685 18.4711C45.0152 18.5808 45.0455 18.7033 45.0595 18.8386C45.0735 18.9739 45.0805 19.1116 45.0805 19.2516V21.6001H44.622V20.6516L44.755 20.7076C44.6267 21.0319 44.4272 21.2793 44.1565 21.4496C43.8858 21.6199 43.5615 21.7051 43.1835 21.7051ZM43.243 21.2606C43.4833 21.2606 43.6933 21.2174 43.873 21.1311C44.0527 21.0448 44.1973 20.9269 44.307 20.7776C44.4167 20.6259 44.4878 20.4556 44.5205 20.2666C44.5485 20.1453 44.5637 20.0123 44.566 19.8676C44.5683 19.7206 44.5695 19.6109 44.5695 19.5386L44.7655 19.6401C44.5905 19.6634 44.4003 19.6868 44.195 19.7101C43.992 19.7334 43.7913 19.7603 43.593 19.7906C43.397 19.8209 43.2197 19.8571 43.061 19.8991C42.9537 19.9294 42.8498 19.9726 42.7495 20.0286C42.6492 20.0823 42.5663 20.1546 42.501 20.2456C42.438 20.3366 42.4065 20.4498 42.4065 20.5851C42.4065 20.6948 42.4333 20.8009 42.487 20.9036C42.543 21.0063 42.6317 21.0914 42.753 21.1591C42.8767 21.2268 43.04 21.2606 43.243 21.2606ZM47.2131 21.7051C46.8328 21.7051 46.5003 21.6223 46.2156 21.4566C45.9333 21.2886 45.7105 21.0564 45.5471 20.7601L45.9601 20.4976C46.0978 20.7309 46.2693 20.9083 46.4746 21.0296C46.68 21.1509 46.9156 21.2116 47.1816 21.2116C47.4593 21.2116 47.6821 21.1474 47.8501 21.0191C48.0181 20.8908 48.1021 20.7146 48.1021 20.4906C48.1021 20.3366 48.066 20.2141 47.9936 20.1231C47.9236 20.0321 47.8163 19.9668 47.6716 19.9271C47.5293 19.8874 47.3508 19.8676 47.1361 19.8676H46.6881V19.4266H47.1291C47.3905 19.4266 47.6005 19.3799 47.7591 19.2866C47.9201 19.1909 48.0006 19.0416 48.0006 18.8386C48.0006 18.6239 47.9201 18.4653 47.7591 18.3626C47.6005 18.2576 47.4103 18.2051 47.1886 18.2051C46.9646 18.2051 46.7523 18.2518 46.5516 18.3451C46.3533 18.4361 46.1865 18.5539 46.0511 18.6986L45.7221 18.3521C45.9111 18.1444 46.1316 17.9869 46.3836 17.8796C46.638 17.7699 46.9191 17.7151 47.2271 17.7151C47.4698 17.7151 47.6891 17.7583 47.8851 17.8446C48.0835 17.9286 48.2398 18.0523 48.3541 18.2156C48.4708 18.3789 48.5291 18.5749 48.5291 18.8036C48.5291 19.0183 48.4766 19.2038 48.3716 19.3601C48.269 19.5164 48.1231 19.6459 47.9341 19.7486L47.9061 19.5561C48.0695 19.5864 48.2048 19.6518 48.3121 19.7521C48.4195 19.8524 48.4988 19.9726 48.5501 20.1126C48.6015 20.2526 48.6271 20.3949 48.6271 20.5396C48.6271 20.7799 48.5641 20.9876 48.4381 21.1626C48.3145 21.3353 48.1453 21.4694 47.9306 21.5651C47.7183 21.6584 47.4791 21.7051 47.2131 21.7051ZM50.957 21.7051C50.6093 21.7051 50.3153 21.6176 50.075 21.4426C49.8347 21.2653 49.6527 21.0261 49.529 20.7251C49.4053 20.4218 49.3435 20.0823 49.3435 19.7066C49.3435 19.3239 49.4053 18.9833 49.529 18.6846C49.655 18.3836 49.8393 18.1468 50.082 17.9741C50.3247 17.8014 50.6233 17.7151 50.978 17.7151C51.3233 17.7151 51.6197 17.8026 51.867 17.9776C52.1143 18.1526 52.3033 18.3906 52.434 18.6916C52.567 18.9926 52.6335 19.3309 52.6335 19.7066C52.6335 20.0846 52.567 20.4241 52.434 20.7251C52.301 21.0261 52.1097 21.2653 51.86 21.4426C51.6103 21.6176 51.3093 21.7051 50.957 21.7051ZM49.256 23.2801V17.8201H49.718V20.6656H49.774V23.2801H49.256ZM50.9045 21.2256C51.1682 21.2256 51.3875 21.1591 51.5625 21.0261C51.7375 20.8931 51.8682 20.7123 51.9545 20.4836C52.0432 20.2526 52.0875 19.9936 52.0875 19.7066C52.0875 19.4219 52.0443 19.1653 51.958 18.9366C51.8717 18.7079 51.7398 18.5271 51.5625 18.3941C51.3875 18.2611 51.1647 18.1946 50.894 18.1946C50.6303 18.1946 50.411 18.2588 50.236 18.3871C50.0633 18.5154 49.9338 18.6939 49.8475 18.9226C49.7612 19.1489 49.718 19.4103 49.718 19.7066C49.718 19.9983 49.7612 20.2596 49.8475 20.4906C49.9338 20.7193 50.0645 20.8989 50.2395 21.0296C50.4145 21.1603 50.6362 21.2256 50.9045 21.2256ZM54.3436 21.7051C54.0589 21.7051 53.8197 21.6538 53.6261 21.5511C53.4347 21.4484 53.2912 21.3119 53.1956 21.1416C53.0999 20.9713 53.0521 20.7858 53.0521 20.5851C53.0521 20.3798 53.0929 20.2048 53.1746 20.0601C53.2586 19.9131 53.3717 19.7929 53.5141 19.6996C53.6587 19.6063 53.8256 19.5351 54.0146 19.4861C54.2059 19.4394 54.4171 19.3986 54.6481 19.3636C54.8814 19.3263 55.1089 19.2948 55.3306 19.2691C55.5546 19.2411 55.7506 19.2143 55.9186 19.1886L55.7366 19.3006C55.7436 18.9273 55.6712 18.6508 55.5196 18.4711C55.3679 18.2914 55.1042 18.2016 54.7286 18.2016C54.4696 18.2016 54.2502 18.2599 54.0706 18.3766C53.8932 18.4933 53.7684 18.6776 53.6961 18.9296L53.1956 18.7826C53.2819 18.4443 53.4557 18.1818 53.7171 17.9951C53.9784 17.8084 54.3179 17.7151 54.7356 17.7151C55.0809 17.7151 55.3737 17.7804 55.6141 17.9111C55.8567 18.0394 56.0282 18.2261 56.1286 18.4711C56.1752 18.5808 56.2056 18.7033 56.2196 18.8386C56.2336 18.9739 56.2406 19.1116 56.2406 19.2516V21.6001H55.7821V20.6516L55.9151 20.7076C55.7867 21.0319 55.5872 21.2793 55.3166 21.4496C55.0459 21.6199 54.7216 21.7051 54.3436 21.7051ZM54.4031 21.2606C54.6434 21.2606 54.8534 21.2174 55.0331 21.1311C55.2127 21.0448 55.3574 20.9269 55.4671 20.7776C55.5767 20.6259 55.6479 20.4556 55.6806 20.2666C55.7086 20.1453 55.7237 20.0123 55.7261 19.8676C55.7284 19.7206 55.7296 19.6109 55.7296 19.5386L55.9256 19.6401C55.7506 19.6634 55.5604 19.6868 55.3551 19.7101C55.1521 19.7334 54.9514 19.7603 54.7531 19.7906C54.5571 19.8209 54.3797 19.8571 54.2211 19.8991C54.1137 19.9294 54.0099 19.9726 53.9096 20.0286C53.8092 20.0823 53.7264 20.1546 53.6611 20.2456C53.5981 20.3366 53.5666 20.4498 53.5666 20.5851C53.5666 20.6948 53.5934 20.8009 53.6471 20.9036C53.7031 21.0063 53.7917 21.0914 53.9131 21.1591C54.0367 21.2268 54.2001 21.2606 54.4031 21.2606ZM58.5272 21.7086C58.1749 21.7063 57.8727 21.6293 57.6207 21.4776C57.3687 21.3259 57.1727 21.0996 57.0327 20.7986C56.8951 20.4976 56.8204 20.1219 56.8087 19.6716C56.8017 19.4733 56.8064 19.2574 56.8227 19.0241C56.8391 18.7884 56.8647 18.5644 56.8997 18.3521C56.9347 18.1398 56.9767 17.9671 57.0257 17.8341C57.0864 17.6614 57.1727 17.5004 57.2847 17.3511C57.3991 17.1994 57.5309 17.0758 57.6802 16.9801C57.8249 16.8821 57.9882 16.8063 58.1702 16.7526C58.3546 16.6966 58.5459 16.6534 58.7442 16.6231C58.9449 16.5928 59.1432 16.5659 59.3392 16.5426C59.5376 16.5193 59.7207 16.4901 59.8887 16.4551L59.9447 16.9206C59.8164 16.9463 59.6647 16.9696 59.4897 16.9906C59.3147 17.0116 59.1316 17.0373 58.9402 17.0676C58.7489 17.0956 58.5657 17.1341 58.3907 17.1831C58.2157 17.2321 58.0664 17.2963 57.9427 17.3756C57.7537 17.4899 57.6079 17.6626 57.5052 17.8936C57.4049 18.1246 57.3431 18.3894 57.3197 18.6881C57.4644 18.4618 57.6557 18.2914 57.8937 18.1771C58.1341 18.0628 58.3942 18.0056 58.6742 18.0056C59.0149 18.0056 59.3077 18.0838 59.5527 18.2401C59.8001 18.3964 59.9902 18.6134 60.1232 18.8911C60.2562 19.1688 60.3227 19.4873 60.3227 19.8466C60.3227 20.2223 60.2492 20.5501 60.1022 20.8301C59.9576 21.1101 59.7511 21.3271 59.4827 21.4811C59.2144 21.6328 58.8959 21.7086 58.5272 21.7086ZM58.5657 21.2151C58.9624 21.2151 59.2634 21.0914 59.4687 20.8441C59.6764 20.5968 59.7802 20.2678 59.7802 19.8571C59.7802 19.4371 59.6729 19.1058 59.4582 18.8631C59.2459 18.6204 58.9461 18.4991 58.5587 18.4991C58.1714 18.4991 57.8739 18.6204 57.6662 18.8631C57.4586 19.1058 57.3547 19.4371 57.3547 19.8571C57.3547 20.2771 57.4586 20.6084 57.6662 20.8511C57.8739 21.0938 58.1737 21.2151 58.5657 21.2151ZM62.5313 21.7051C62.1556 21.7051 61.8348 21.6199 61.5688 21.4496C61.3028 21.2793 61.0986 21.0436 60.9563 20.7426C60.8139 20.4416 60.7428 20.0963 60.7428 19.7066C60.7428 19.3099 60.8151 18.9623 60.9598 18.6636C61.1044 18.3649 61.3098 18.1328 61.5758 17.9671C61.8441 17.7991 62.1626 17.7151 62.5313 17.7151C62.9093 17.7151 63.2313 17.8003 63.4973 17.9706C63.7656 18.1386 63.9698 18.3731 64.1098 18.6741C64.2521 18.9728 64.3233 19.3169 64.3233 19.7066C64.3233 20.1033 64.2521 20.4521 64.1098 20.7531C63.9674 21.0518 63.7621 21.2851 63.4938 21.4531C63.2254 21.6211 62.9046 21.7051 62.5313 21.7051ZM62.5313 21.2116C62.9513 21.2116 63.2639 21.0728 63.4693 20.7951C63.6746 20.5151 63.7773 20.1523 63.7773 19.7066C63.7773 19.2493 63.6734 18.8853 63.4658 18.6146C63.2604 18.3439 62.9489 18.2086 62.5313 18.2086C62.2489 18.2086 62.0156 18.2728 61.8313 18.4011C61.6493 18.5271 61.5128 18.7033 61.4218 18.9296C61.3331 19.1536 61.2888 19.4126 61.2888 19.7066C61.2888 20.1616 61.3938 20.5268 61.6038 20.8021C61.8138 21.0751 62.1229 21.2116 62.5313 21.2116ZM65.892 21.6001V18.2961H64.5515V17.8201H67.747V18.2961H66.4065V21.6001H65.892ZM68.2708 21.6001L68.2743 17.8201H68.7923V19.6401L70.4793 17.8201H71.1653L69.3943 19.7101L71.3963 21.6001H70.6473L68.7923 19.7801V21.6001H68.2708ZM74.61 17.8201V21.6001H74.1095V18.6566L72.0375 21.6001H71.6035V17.8201H72.104V20.7391L74.1795 17.8201H74.61Z" fill="#585858"></path></svg> 