<?xml version="1.0" encoding="utf-8"?>
<!-- Generator: Adobe Illustrator 18.0.0, SVG Export Plug-In . SVG Version: 6.00 Build 0)  -->
<!DOCTYPE svg PUBLIC "-//W3C//DTD SVG 1.1//EN" "http://www.w3.org/Graphics/SVG/1.1/DTD/svg11.dtd">
<svg version="1.1" id="Layer_1" xmlns="http://www.w3.org/2000/svg" xmlns:xlink="http://www.w3.org/1999/xlink" x="0px" y="0px"
	 viewBox="0 0 595.3 841.9" enable-background="new 0 0 595.3 841.9" xml:space="preserve">
<g>
	<g>
		<rect x="116.8" y="239" fill="#FFFFFF" width="362.3" height="14.8"/>
	</g>
	<g>
		<rect x="116.8" y="586.6" fill="#FFFFFF" width="362.3" height="14.8"/>
	</g>
	<g>
		<g>
			<path fill="#FFFFFF" d="M271.9,309.4c-11.7,0-21.7,4-29.9,12c-8.2,8-12.3,18-12.3,30c0,11.8,4.1,21.9,12.2,29.9
				c8.1,8,18.2,12,29.9,12c11.8,0,21.8-4,29.9-12c8.1-8,12.2-18.1,12.2-29.9c0-11.9-4.1-22-12.3-30
				C293.6,313.4,283.6,309.4,271.9,309.4z M302.2,351.3c0,8.5-3,15.9-8.8,21.8c-5.8,5.9-13,8.9-21.4,8.9c-8.4,0-15.6-3-21.4-8.9
				c-5.9-5.9-8.8-13.3-8.8-21.8c0-8.5,3-15.9,8.8-21.8c5.8-5.9,13.1-8.9,21.4-8.9c8.4,0,15.6,3,21.4,8.9
				C299.2,335.4,302.2,342.8,302.2,351.3z"/>
			<polygon fill="#FFFFFF" points="326.2,321.9 345.1,321.9 345.1,391.8 356.8,391.8 356.8,321.9 375.8,321.9 375.8,310.7 
				326.2,310.7 			"/>
			<path fill="#FFFFFF" d="M459.9,321.3c-8.1-7.9-18.2-12-29.9-12c-11.7,0-21.7,4-29.9,12c-8.2,8-12.3,18-12.3,30
				c0,11.8,4.1,21.9,12.2,29.9c8.1,8,18.2,12,29.9,12c11.8,0,21.8-4,29.9-12c8.1-8,12.2-18.1,12.2-29.9
				C472.2,339.4,468.1,329.3,459.9,321.3z M460.3,351.3c0,8.5-3,15.9-8.8,21.8c-5.8,5.9-13,8.9-21.4,8.9c-8.4,0-15.6-3-21.4-8.9
				c-5.9-5.9-8.8-13.3-8.8-21.8c0-8.5,3-15.9,8.8-21.8c5.8-5.9,13.1-8.9,21.4-8.9c8.4,0,15.6,3,21.4,8.9
				C457.3,335.4,460.3,342.8,460.3,351.3z"/>
			<path fill="#FFFFFF" d="M171.4,309.6v-2.7h-11.1v2.7c-9.3,1.1-17.5,5-24.3,11.6c-8.2,8-12.3,18-12.3,30
				c0,11.8,4.1,21.9,12.2,29.9c6.8,6.7,15,10.6,24.4,11.7v5.6h11.1v-5.6c9.4-1.1,17.6-5,24.4-11.7c8.1-8,12.2-18.1,12.2-29.9
				c0-11.9-4.1-22-12.3-30C188.9,314.6,180.7,310.7,171.4,309.6z M171.4,321c6,1,11.4,3.9,15.9,8.4c5.9,5.9,8.8,13.3,8.8,21.8
				c0,8.5-3,15.9-8.8,21.8c-4.5,4.6-9.8,7.4-15.9,8.4V321z M144.4,373c-5.9-5.9-8.8-13.3-8.8-21.8c0-8.5,3-15.9,8.8-21.8
				c4.5-4.6,9.8-7.4,15.9-8.4v60.4C154.2,380.4,148.9,377.6,144.4,373z"/>
		</g>
		<g>
			<path fill="#FFFFFF" d="M472.2,491.5c0-11.9-4.1-22-12.3-30c-8.1-7.9-18.2-12-29.9-12c-11.7,0-21.7,4-29.9,12
				c-8.2,8-12.3,18-12.3,30c0,11.8,4.1,21.9,12.2,29.9c8.1,8,18.2,12,29.9,12c11.8,0,21.8-4,29.9-12c0.2-0.2,0.3-0.3,0.5-0.5v11H472
				v-35.6C472.1,494.7,472.2,493.1,472.2,491.5z M460.3,491.5c0,8.5-3,15.9-8.8,21.8c-5.8,5.9-13,8.9-21.4,8.9
				c-8.4,0-15.6-3-21.4-8.9c-5.9-5.9-8.8-13.3-8.8-21.8c0-8.5,3-15.9,8.8-21.8c5.8-5.9,13.1-8.9,21.4-8.9c8.4,0,15.6,3,21.4,8.9
				C457.3,475.7,460.3,483,460.3,491.5z"/>
			<path fill="#FFFFFF" d="M167.1,449.6c-12.1,0-22.3,4.1-30.3,12c-8,8-12.1,18.1-12.1,30.1c0,11.7,4,21.7,12,29.7
				c8,8,18,12,29.9,12c8.9,0,17.1-2.7,24.4-7.9l0.6-0.5v-15.2l-2.6,2.6c-2.6,2.6-5.5,4.7-8.7,6.3c-4.4,2.3-9.1,3.5-13.8,3.5
				c-7.6,0-14.5-2.8-20.7-8.2c-6.1-5.4-9.3-12.8-9.3-22.2c0-8.7,2.9-16.1,8.5-22.1c5.6-5.9,12.8-9,21.3-9c4.3,0,8.6,1,12.8,2.9
				c3.5,1.6,6.8,4,9.8,7l2.6,2.6v-15.2l-0.6-0.5C184,452.3,175.9,449.6,167.1,449.6z"/>
			<path fill="#FFFFFF" d="M254.2,449.6c-11.7,0-21.7,4-29.9,12c-8.2,8-12.3,18-12.3,30c0,11.8,4.1,21.9,12.2,29.9
				c8.1,8,18.2,12,29.9,12c11.8,0,21.8-4,29.9-12c8.1-8,12.2-18.1,12.2-29.9c0-11.9-4.1-22-12.3-30
				C275.9,453.6,265.9,449.6,254.2,449.6z M284.4,491.5c0,8.5-3,15.9-8.8,21.8c-5.8,5.9-13,8.9-21.4,8.9c-8.4,0-15.6-3-21.4-8.9
				c-5.9-5.9-8.8-13.3-8.8-21.8c0-8.5,3-15.9,8.8-21.8c5.8-5.9,13.1-8.9,21.4-8.9c8.4,0,15.6,3,21.4,8.9
				C281.5,475.6,284.4,483,284.4,491.5z"/>
			<path fill="#FFFFFF" d="M357,488.3c4-3.7,6.1-8.6,6.1-14.8c0-7.6-2.6-13.5-7.6-17.4c-4.4-3.5-10.7-5.2-18.9-5.2H321v81.2h21
				c8.4,0,15.1-1.8,19.7-5.5c2.4-1.9,4.5-4.5,6.1-7.6c1.6-3.2,2.5-6.7,2.5-10.4c0-4.6-1.3-8.9-3.9-13
				C364.1,492.2,361,489.8,357,488.3z M350.5,479.1c-0.7,1.5-1.5,2.6-2.4,3.3c-1,0.8-2.2,1.4-3.5,1.8c-1.4,0.5-2.6,0.8-3.6,0.9
				c-1,0.1-2.1,0.2-3.2,0.2h-5v-23.1h5.3c0.8,0,1.6,0,2.4,0.1c0.8,0.1,1.9,0.3,3.5,0.8c1.5,0.4,2.7,1,3.7,1.8c1,0.7,1.9,1.9,2.7,3.4
				c0.8,1.5,1.2,3.4,1.2,5.6C351.6,475.8,351.2,477.6,350.5,479.1z M358.5,508.3c0,4.2-1.5,7.3-4.6,9.6c-2.5,2-6.8,3-12.8,3h-8.4
				V496h7.4c5.7,0,9.9,0.7,12.5,2.2C356.5,500.3,358.5,503.6,358.5,508.3z"/>
		</g>
	</g>
</g>
</svg>
